<svg version="1.1" id="Ebene_1" xmlns="http://www.w3.org/2000/svg" xmlns:xlink="http://www.w3.org/1999/xlink" x="0px" y="0px" viewBox="0 0 108 45" style="enable-background:new 0 0 108 45;" xml:space="preserve">
<path fill="#E33B45" d="M107.1,1.4H83.3h0v0v40.9v0h2.5v0v-17l18.8,0v-2.5H85.7v-19H107v0h0.1V1.4z M76,23.1H57.8v2.5h15.3h0.2
	c-0.2,1.3-0.6,2.5-1.1,3.7c-0.7,1.4-1.3,2.7-2.2,4c-1.6,2.3-3.8,4.3-6.2,5.8c-5.3,3.1-12,3.6-17.7,1.1c-5.5-2.4-9.7-7.2-11.2-13
	C33.6,22,34.4,16.5,37,12c2.5-4.1,6.4-7.2,11-8.7C53.2,1.7,59,2.4,63.7,5c1.9,1.1,3.7,2.6,5.2,4.3H72C67.8,3.6,61.1,0,54,0
	c-9.9,0-18.8,6.7-21.5,16.2c-1.8,6.4-0.6,13.3,3.3,18.7c0.4,0.7,1.1,1.4,1.6,2.1c0.7,0.8,1.5,1.5,2.3,2.2c3.9,3.2,8.9,5.1,13.9,5.1
	c5.7,0,11.2-2.1,15.3-6c3.8-3.5,6.2-8.4,6.8-13.5C75.9,24.2,76,23.7,76,23.1z M30.6,39.9v2.5H0L25.1,3.9H0.7V1.4h28.9L4.6,39.9H30.6
	z"></path>
</svg>