<?xml version="1.0" encoding="UTF-8" standalone="no"?>
<!-- Created with Inkscape (http://www.inkscape.org/) -->

<svg
   xmlns:dc="http://purl.org/dc/elements/1.1/"
   xmlns:cc="http://creativecommons.org/ns#"
   xmlns:rdf="http://www.w3.org/1999/02/22-rdf-syntax-ns#"
   xmlns:svg="http://www.w3.org/2000/svg"
   xmlns="http://www.w3.org/2000/svg"
   xmlns:sodipodi="http://sodipodi.sourceforge.net/DTD/sodipodi-0.dtd"
   xmlns:inkscape="http://www.inkscape.org/namespaces/inkscape"
   width="154.99001"
   height="42.04015"
   viewBox="0 0 41.00777 11.123122"
   version="1.1"
   id="svg112"
   inkscape:version="0.92.0 r15299"
   sodipodi:docname="hoffman construction co.svg">
  <defs
     id="defs106" />
  <sodipodi:namedview
     id="base"
     pagecolor="#ffffff"
     bordercolor="#666666"
     borderopacity="1.0"
     inkscape:pageopacity="0.0"
     inkscape:pageshadow="2"
     inkscape:zoom="5.8250536"
     inkscape:cx="76.994999"
     inkscape:cy="20.520152"
     inkscape:document-units="mm"
     inkscape:current-layer="layer1"
     showgrid="false"
     fit-margin-top="0"
     fit-margin-left="0"
     fit-margin-right="0"
     fit-margin-bottom="0"
     units="px"
     inkscape:window-width="1280"
     inkscape:window-height="744"
     inkscape:window-x="-4"
     inkscape:window-y="-4"
     inkscape:window-maximized="1" />
  <metadata
     id="metadata109">
    <rdf:RDF>
      <cc:Work
         rdf:about="">
        <dc:format>image/svg+xml</dc:format>
        <dc:type
           rdf:resource="http://purl.org/dc/dcmitype/StillImage" />
        <dc:title></dc:title>
      </cc:Work>
    </rdf:RDF>
  </metadata>
  <g
     inkscape:label="Layer 1"
     inkscape:groupmode="layer"
     id="layer1"
     transform="translate(-53.71174,-316.2526)">
    <g
       id="g154"
       transform="translate(0.13229264,-0.1322887)">
      <path
         style="fill:#f5822b;fill-opacity:1;stroke-width:0.26458332"
         id="path114"
         d="m 56.026844,320.71612 c -0.447146,-0.005 -0.822854,-0.34661 -0.931333,-0.80698 l -0.783167,-3.38667 h -0.597958 v 5.15938 h 9.194271 v -5.15938 h -0.60325 l -0.783167,3.38667 c -0.111125,0.46037 -0.484188,0.80169 -0.931333,0.80698 z"
         class="logo-mark-top fill-orange"
         inkscape:connector-curvature="0" />
      <path
         style="fill:#0e121f;fill-opacity:1;stroke-width:0.26458332"
         id="path116"
         d="m 56.02949,323.1688 c -0.447146,0.005 -0.822854,0.34661 -0.931333,0.80698 l -0.783167,3.38667 h -0.60325 v -5.15937 h 9.196917 v 5.15937 h -0.60325 l -0.783167,-3.38667 c -0.111125,-0.46037 -0.486833,-0.80168 -0.931333,-0.80698 z"
         class="logo-mark-bottom logo-transition"
         inkscape:connector-curvature="0" />
      <g
         style="fill:#0e121f;fill-opacity:1"
         id="g146">
        <path
           inkscape:connector-curvature="0"
           class="logo-text logo-transition"
           id="logo-loader"
           d="m 66.710719,319.24239 h -0.719667 v -1.05834 h -0.941916 v 1.05834 h -0.719667 v -2.70404 h 0.719667 v 1.016 h 0.941916 v -1.016 h 0.719667 z m 0.346604,-0.96838 v -0.76464 c 0,-0.83344 0.518583,-0.99219 1.251479,-0.99219 0.732896,0 1.251479,0.15875 1.251479,0.99219 v 0.76464 c 0,0.83344 -0.518583,0.99219 -1.251479,0.99219 -0.732896,-0.003 -1.251479,-0.1614 -1.251479,-0.99219 z m 1.759479,-0.082 v -0.60854 c 0,-0.39952 -0.132291,-0.43921 -0.508,-0.43921 -0.375708,0 -0.497416,0.0397 -0.508,0.43921 v 0.60854 c 0.01058,0.40481 0.132292,0.4445 0.508,0.4445 0.373063,0 0.508,-0.0397 0.508,-0.4445 z m 1.780646,-0.53181 h 1.103313 v 0.59002 h -1.103313 v 0.99219 h -0.722312 v -2.70404 h 1.918229 v 0.59002 h -1.195917 z m 2.219854,0 h 1.103313 v 0.59002 h -1.103313 v 0.99219 h -0.719666 v -2.70404 h 1.918229 v 0.59002 h -1.195917 v 0.53181 z m 2.241021,1.58221 h -0.722312 v -2.70404 h 1.143 l 0.515937,1.69862 h 0.02381 l 0.489479,-1.69862 h 1.172104 v 2.70404 h -0.722313 l 0.07144,-2.07169 h -0.02646 l -0.685271,2.07169 H 75.69332 l -0.693208,-2.07169 h -0.02117 z m 3.680354,-0.46567 -0.132291,0.46567 h -0.748771 l 0.812271,-2.70404 h 1.095375 l 0.822854,2.70404 h -0.735542 l -0.140229,-0.46567 z m 0.489479,-1.69598 h -0.0079 l -0.328083,1.17211 h 0.669395 z m 2.25425,2.16165 h -0.722312 v -2.70404 h 1.217083 l 0.775229,2.07698 h 0.0291 l -0.04233,-2.07698 h 0.719667 v 2.70404 H 82.22853 l -0.764646,-2.07698 h -0.0291 z"
           style="fill:#0e121f;fill-opacity:1;stroke-width:0.26458332" />
        <path
           inkscape:connector-curvature="0"
           class="logo-text logo-transition"
           d="m 66.681615,322.2507 v 0.0794 c 0,0.29633 -0.0026,0.56356 -0.248708,0.76729 -0.246063,0.20108 -0.545042,0.19843 -0.85725,0.19843 -0.735542,0 -1.272646,-0.037 -1.272646,-1.02393 v -0.6985 c 0,-0.89429 0.478896,-1.02394 1.272646,-1.02394 0.743479,0 1.087437,0.0767 1.103312,0.88635 v 0.10584 H 65.93549 v -0.10584 c -0.02646,-0.24077 -0.195792,-0.25929 -0.439208,-0.25929 -0.410105,0 -0.449792,0.127 -0.449792,0.51065 v 0.42069 c 0,0.40481 0.01852,0.55827 0.449792,0.55827 0.298979,0 0.4445,-0.0212 0.4445,-0.33867 v -0.0794 h 0.740833 z m 0.238125,0.0556 v -0.76464 c 0,-0.83344 0.518583,-0.99219 1.251479,-0.99219 0.732896,0 1.251479,0.15875 1.251479,0.99219 v 0.76464 c 0,0.83344 -0.518583,0.99219 -1.251479,0.99219 -0.732896,-0.003 -1.251479,-0.1614 -1.251479,-0.99219 z m 1.759479,-0.0794 v -0.60854 c 0,-0.39952 -0.132292,-0.43921 -0.508,-0.43921 -0.375708,0 -0.497417,0.0397 -0.508,0.43921 v 0.60854 c 0.01058,0.40481 0.132292,0.4445 0.508,0.4445 0.373062,-0.003 0.508,-0.0423 0.508,-0.4445 z m 1.801812,1.04775 h -0.719666 v -2.7014 h 1.217083 l 0.775229,2.07698 h 0.0291 l -0.04233,-2.07698 h 0.719667 v 2.70404 h -1.227667 l -0.764646,-2.07698 h -0.0291 z m 3.65125,-1.64306 c 0.799042,0.0582 0.99748,0.15875 0.99748,0.77787 0,0.44715 0.01852,0.88635 -1.172105,0.88635 -0.687916,0 -1.145645,-0.0132 -1.145645,-0.90222 h 0.693208 c 0,0.28045 0.100542,0.30956 0.455083,0.30956 0.338667,0 0.449792,-0.0212 0.449792,-0.24871 0,-0.23548 -0.03969,-0.23019 -0.378354,-0.25135 l -0.15875,-0.0106 c -0.66675,-0.0476 -1.055688,-0.0423 -1.055688,-0.81756 0,-0.77523 0.436563,-0.8255 1.143,-0.8255 0.590021,0 1.095375,0.0106 1.095375,0.75671 v 0.11112 h -0.693208 c 0,-0.27781 -0.116417,-0.27781 -0.402167,-0.27781 -0.388937,0 -0.420687,0.0794 -0.420687,0.23019 0,0.21696 0.105833,0.22225 0.296333,0.23812 z m 2.545292,1.64306 h -0.722312 v -2.07434 h -0.693209 v -0.62706 h 2.140479 v 0.62706 h -0.724958 z m 0.931333,-2.7014 h 1.391709 c 0.624416,0.0106 0.928687,0.14552 0.928687,0.81756 0,0.4498 0,0.71438 -0.510646,0.83344 v 0.0291 c 0.296334,0.0106 0.486834,0.17198 0.486834,0.47889 v 0.54504 h -0.722313 v -0.37835 c 0.0079,-0.20108 -0.07937,-0.33867 -0.296333,-0.33867 h -0.558271 v 0.71702 h -0.722312 v -2.70404 z m 1.280584,1.35731 c 0.309562,0 0.298979,-0.11641 0.298979,-0.42068 0,-0.24077 -0.06085,-0.30957 -0.298979,-0.30957 h -0.558271 v 0.7329 h 0.558271 z m 3.743854,-1.35731 v 1.80181 c 0,0.71967 -0.338667,0.9234 -1.132417,0.9234 -1.082146,0 -1.195917,-0.27517 -1.195917,-0.9234 v -1.80181 h 0.719667 v 1.78859 c 0,0.30691 0.171979,0.30956 0.47625,0.30956 0.306917,0 0.410104,-0.0265 0.410104,-0.34131 v -1.75419 h 0.722313 z m 2.7305,1.67746 v 0.0794 c 0,0.29633 -0.0026,0.56356 -0.248709,0.76729 -0.246062,0.20108 -0.545041,0.19843 -0.85725,0.19843 -0.735541,0 -1.272645,-0.037 -1.272645,-1.02393 v -0.6985 c 0,-0.89429 0.478895,-1.02394 1.272645,-1.02394 0.74348,0 1.087438,0.0767 1.103313,0.88635 v 0.10584 h -0.743479 v -0.10584 c -0.02646,-0.24077 -0.195792,-0.25929 -0.439209,-0.25929 -0.410104,0 -0.449791,0.127 -0.449791,0.51065 v 0.42069 c 0,0.40481 0.01852,0.55827 0.449791,0.55827 0.29898,0 0.4445,-0.0212 0.4445,-0.33867 v -0.0794 h 0.740834 z m 1.534583,1.02394 H 86.17876 v -2.07434 h -0.693208 v -0.62706 h 2.140479 v 0.62706 h -0.727604 z m 1.672167,0 h -0.722313 v -2.7014 h 0.722313 z m 0.341312,-0.96838 v -0.76464 c 0,-0.83344 0.518584,-0.99219 1.251479,-0.99219 0.732896,0 1.25148,0.15875 1.25148,0.99219 v 0.76464 c 0,0.83344 -0.518584,0.99219 -1.25148,0.99219 -0.73025,-0.003 -1.251479,-0.1614 -1.251479,-0.99219 z m 1.759479,-0.0794 v -0.60854 c 0,-0.39952 -0.132291,-0.43921 -0.508,-0.43921 -0.375708,0 -0.497416,0.0397 -0.508,0.43921 v 0.60854 c 0.01058,0.40481 0.132292,0.4445 0.508,0.4445 0.375709,-0.003 0.508,-0.0423 0.508,-0.4445 z m 1.801813,1.04775 h -0.719667 v -2.7014 h 1.217084 l 0.775229,2.07698 h 0.0291 l -0.04233,-2.07698 h 0.722313 v 2.70404 h -1.230312 l -0.764646,-2.07698 h -0.0291 z"
           id="path119"
           style="fill:#0e121f;fill-opacity:1;stroke-width:0.26458332" />
        <path
           inkscape:connector-curvature="0"
           class="logo-text logo-transition"
           d="m 66.681615,326.32793 v 0.0794 c 0,0.29634 -0.0026,0.56357 -0.248708,0.7673 -0.246063,0.20108 -0.545042,0.19843 -0.85725,0.19843 -0.735542,0 -1.272646,-0.037 -1.272646,-1.02393 v -0.6985 c 0,-0.8943 0.478896,-1.02394 1.272646,-1.02394 0.743479,0 1.087437,0.0767 1.103312,0.88635 v 0.10584 H 65.93549 v -0.10584 c -0.02646,-0.24077 -0.195792,-0.25929 -0.439208,-0.25929 -0.410105,0 -0.449792,0.127 -0.449792,0.51065 v 0.42068 c 0,0.40482 0.01852,0.55828 0.449792,0.55828 0.298979,0 0.4445,-0.0212 0.4445,-0.33867 v -0.0794 h 0.740833 z m 0.238125,0.0556 v -0.76464 c 0,-0.83344 0.518583,-0.99219 1.251479,-0.99219 0.73025,0 1.251479,0.15875 1.251479,0.99219 v 0.76464 c 0,0.83344 -0.518583,0.99219 -1.251479,0.99219 -0.732896,-0.003 -1.251479,-0.1614 -1.251479,-0.99219 z m 1.759479,-0.082 v -0.60854 c 0,-0.39952 -0.132292,-0.43921 -0.508,-0.43921 -0.375708,0 -0.497417,0.0397 -0.508,0.43921 v 0.60854 c 0.01058,0.40481 0.132292,0.4445 0.508,0.4445 0.373062,0 0.508,-0.0397 0.508,-0.4445 z m 1.801812,1.0504 h -0.719666 v -2.70404 h 1.143 l 0.515937,1.69862 h 0.02381 l 0.489479,-1.69862 h 1.172104 v 2.70404 h -0.722312 l 0.07144,-2.07169 h -0.02646 l -0.685271,2.07169 h -0.621771 l -0.693208,-2.07169 h -0.02117 z m 3.048,0 v -2.70404 h 1.359959 c 0.669396,0 0.923396,0.28575 0.923396,0.99218 0,0.75936 -0.169334,1.02129 -0.923396,1.02129 h -0.637646 v 0.69321 h -0.722313 z m 1.214438,-1.32027 c 0.28575,-0.0106 0.325437,-0.0423 0.325437,-0.39423 0,-0.27782 -0.04233,-0.36513 -0.325437,-0.36513 h -0.494771 v 0.75671 h 0.494771 z m 1.905,0.8546 -0.132292,0.46567 h -0.748771 l 0.812271,-2.70404 h 1.095375 l 0.822854,2.70404 h -0.735541 l -0.140229,-0.46567 z m 0.489479,-1.69598 h -0.0079 l -0.328084,1.17211 h 0.669396 z m 2.251604,2.16165 H 78.66724 v -2.70404 h 1.219729 l 0.775229,2.07697 h 0.0291 l -0.04233,-2.07697 h 0.722312 v 2.70404 h -1.230312 l -0.764646,-2.07698 h -0.0291 z m 3.820583,-0.94721 v 0.94721 h -0.719666 v -0.94721 l -0.957792,-1.75419 h 0.8255 l 0.484188,1.04246 h 0.02646 l 0.497417,-1.04246 h 0.836083 z"
           id="path121"
           style="fill:#0e121f;fill-opacity:1;stroke-width:0.26458332" />
      </g>
    </g>
  </g>
</svg>
